<svg xmlns="http://www.w3.org/2000/svg" id="canvas" viewBox="600.752 295.836 641.182 273.565"><path d="M 622.60,302.49 C 622.48 304.63, 622.63 307.31, 622.36 313.18 C 622.08 319.06, 621.81 322.94, 621.23 331.88 C 620.65 340.82, 620.53 346.62, 619.45 357.88 C 618.37 369.14, 617.26 375.36, 615.82 388.16 C 614.39 400.96, 613.73 408.57, 612.27 421.89 C 610.81 435.21, 609.91 442.15, 608.52 454.79 C 607.13 467.42, 606.26 473.84, 605.33 485.07 C 604.40 496.29, 604.10 501.80, 603.87 510.91 C 603.63 520.02, 603.77 524.10, 604.16 530.61 C 604.55 537.12, 604.78 540.02, 605.80 543.46 C 606.83 546.91, 607.48 547.96, 609.27 547.85 C 611.06 547.74, 612.19 546.57, 614.76 542.90 C 617.33 539.24, 618.64 536.27, 622.13 529.52 C 625.61 522.78, 627.24 517.82, 632.20 509.18 C 637.15 500.53, 640.53 495.49, 646.91 486.30 C 653.29 477.10, 657.37 471.93, 664.11 463.22 C 670.85 454.52, 674.31 449.36, 680.62 442.78 C 686.93 436.21, 690.67 434.09, 695.65 430.33 C 700.64 426.58, 702.30 425.28, 705.56 424.00 C 708.82 422.72, 709.84 422.67, 711.96 423.95 C 714.08 425.22, 715.07 426.43, 716.16 430.38 C 717.24 434.33, 717.15 437.10, 717.40 443.70 C 717.65 450.30, 717.57 454.80, 717.40 463.38 C 717.23 471.96, 717.02 477.61, 716.55 486.61 C 716.08 495.61, 715.37 500.42, 715.04 508.39 C 714.71 516.35, 714.68 520.07, 714.90 526.42 C 715.11 532.78, 715.36 535.69, 716.12 540.16 C 716.88 544.63, 717.73 546.20, 718.69 548.78 C 719.65 551.36, 720.42 552.22, 720.91 553.05 C 721.40 553.89, 721.47 553.84, 721.14 552.94 C 720.80 552.05, 720.14 551.15, 719.24 548.58 C 718.34 546.01, 717.40 544.51, 716.62 540.07 C 715.83 535.64, 715.54 532.74, 715.30 526.41 C 715.05 520.07, 715.07 516.36, 715.39 508.40 C 715.71 500.45, 716.42 495.63, 716.90 486.63 C 717.38 477.63, 717.60 471.98, 717.79 463.39 C 717.99 454.80, 718.09 450.32, 717.88 443.69 C 717.66 437.05, 717.84 434.27, 716.71 430.23 C 715.58 426.19, 714.49 424.83, 712.23 423.50 C 709.96 422.16, 708.75 422.25, 705.39 423.56 C 702.03 424.87, 700.43 426.24, 695.43 430.04 C 690.44 433.85, 686.71 435.97, 680.41 442.58 C 674.10 449.18, 670.64 454.34, 663.90 463.06 C 657.15 471.77, 653.08 476.94, 646.68 486.13 C 640.28 495.32, 636.89 500.37, 631.90 509.01 C 626.92 517.65, 625.26 522.61, 621.74 529.32 C 618.22 536.04, 616.82 538.96, 614.32 542.59 C 611.82 546.23, 610.85 547.36, 609.24 547.51 C 607.63 547.65, 607.21 546.72, 606.27 543.33 C 605.32 539.95, 604.94 537.07, 604.52 530.58 C 604.10 524.10, 603.94 520.02, 604.15 510.92 C 604.36 501.82, 604.65 496.31, 605.57 485.09 C 606.49 473.86, 607.36 467.44, 608.74 454.81 C 610.13 442.17, 611.03 435.24, 612.49 421.91 C 613.96 408.59, 614.61 400.99, 616.06 388.19 C 617.51 375.39, 618.63 369.16, 619.73 357.91 C 620.84 346.65, 620.98 340.84, 621.58 331.90 C 622.19 322.96, 622.49 319.08, 622.77 313.20 C 623.05 307.32, 623.03 304.64, 622.99 302.50 C 622.96 300.36, 622.73 300.35, 622.60 302.49" style="stroke: black; fill: black;"/><path d="M 793.38,495.48 C 794.66 496.24, 796.53 497.85, 799.98 498.90 C 803.42 499.94, 805.61 500.68, 810.59 500.70 C 815.57 500.73, 818.87 500.62, 824.87 499.02 C 830.88 497.43, 833.97 495.98, 840.61 492.72 C 847.25 489.46, 851.21 487.16, 858.06 482.72 C 864.91 478.28, 868.53 475.42, 874.85 470.53 C 881.17 465.63, 884.54 462.87, 889.66 458.25 C 894.79 453.62, 897.41 451.60, 900.48 447.39 C 903.54 443.17, 904.29 440.80, 905.00 437.18 C 905.71 433.57, 905.86 432.05, 904.03 429.30 C 902.19 426.54, 900.37 425.13, 895.83 423.40 C 891.30 421.68, 887.81 420.52, 881.35 420.67 C 874.89 420.81, 871.40 421.60, 863.54 424.12 C 855.68 426.64, 850.85 428.35, 842.05 433.26 C 833.24 438.16, 827.78 441.27, 819.53 448.64 C 811.28 456.01, 807.16 460.99, 800.79 470.11 C 794.43 479.22, 791.48 484.68, 787.70 494.21 C 783.93 503.75, 782.62 508.97, 781.92 517.80 C 781.23 526.63, 781.38 531.06, 784.23 538.36 C 787.08 545.67, 790.00 549.32, 796.17 554.35 C 802.33 559.38, 806.68 561.11, 815.07 563.51 C 823.46 565.91, 828.31 566.63, 838.12 566.34 C 847.94 566.05, 854.73 564.36, 864.12 562.05 C 873.51 559.73, 878.00 557.50, 885.08 554.76 C 892.16 552.02, 896.65 549.68, 899.51 548.34 C 902.37 547.00, 902.29 546.83, 899.38 548.05 C 896.47 549.28, 892.03 551.73, 884.97 554.47 C 877.90 557.21, 873.42 559.43, 864.05 561.74 C 854.68 564.06, 847.89 565.74, 838.11 566.04 C 828.34 566.33, 823.50 565.60, 815.15 563.22 C 806.80 560.83, 802.49 559.10, 796.36 554.10 C 790.23 549.11, 787.34 545.51, 784.51 538.25 C 781.68 531.00, 781.52 526.61, 782.21 517.82 C 782.89 509.03, 784.19 503.83, 787.95 494.31 C 791.71 484.80, 794.65 479.35, 801.01 470.26 C 807.36 461.16, 811.47 456.19, 819.71 448.84 C 827.95 441.49, 833.41 438.40, 842.19 433.52 C 850.98 428.65, 855.82 426.95, 863.65 424.47 C 871.49 421.99, 874.96 421.24, 881.36 421.13 C 887.75 421.02, 891.20 422.22, 895.63 423.92 C 900.07 425.62, 901.77 426.99, 903.54 429.62 C 905.31 432.25, 905.16 433.58, 904.47 437.08 C 903.78 440.58, 903.12 442.94, 900.10 447.12 C 897.09 451.29, 894.49 453.33, 889.40 457.95 C 884.30 462.58, 880.93 465.35, 874.62 470.24 C 868.31 475.13, 864.70 477.99, 857.86 482.41 C 851.02 486.83, 847.05 489.12, 840.43 492.35 C 833.81 495.58, 830.71 497.00, 824.75 498.55 C 818.78 500.10, 815.51 500.16, 810.59 500.10 C 805.68 500.04, 803.58 499.24, 800.17 498.24 C 796.77 497.24, 794.92 495.65, 793.56 495.10 C 792.20 494.55, 792.09 494.72, 793.38 495.48" style="stroke: black; fill: black;"/><path d="M 1011.93,305.09 C 1011.54 306.27, 1011.20 307.09, 1010.32 311.07 C 1009.44 315.04, 1008.72 317.94, 1007.54 324.97 C 1006.36 331.99, 1005.96 336.46, 1004.42 346.20 C 1002.89 355.94, 1001.96 361.77, 999.88 373.67 C 997.79 385.57, 996.46 392.46, 993.98 405.71 C 991.50 418.95, 989.92 426.37, 987.47 439.90 C 985.03 453.44, 984.10 460.96, 981.77 473.39 C 979.45 485.81, 977.59 491.86, 975.87 502.01 C 974.15 512.16, 973.55 516.44, 973.16 524.12 C 972.77 531.81, 973.48 535.42, 973.94 540.43 C 974.39 545.45, 975.07 547.45, 975.43 549.20 C 975.78 550.94, 975.92 550.91, 975.70 549.15 C 975.47 547.39, 974.74 545.40, 974.29 540.40 C 973.85 535.40, 973.10 531.81, 973.47 524.14 C 973.83 516.47, 974.41 512.20, 976.12 502.05 C 977.82 491.91, 979.68 485.85, 981.99 473.43 C 984.31 461.00, 985.24 453.48, 987.69 439.94 C 990.13 426.41, 991.71 418.99, 994.20 405.75 C 996.69 392.50, 998.02 385.61, 1000.13 373.71 C 1002.24 361.81, 1003.18 355.99, 1004.75 346.25 C 1006.32 336.52, 1006.76 332.06, 1007.98 325.04 C 1009.20 318.03, 1010.02 315.16, 1010.87 311.19 C 1011.73 307.21, 1012.05 306.39, 1012.26 305.17 C 1012.47 303.95, 1012.32 303.91, 1011.93 305.09" style="stroke: black; fill: black;"/><path d="M 1086.18,300.15 C 1085.84 301.92, 1085.52 303.75, 1084.84 309.07 C 1084.15 314.40, 1083.86 318.26, 1082.77 326.76 C 1081.67 335.27, 1080.79 340.91, 1079.35 351.60 C 1077.90 362.29, 1077.26 368.55, 1075.53 380.21 C 1073.80 391.88, 1072.90 398.28, 1070.69 409.92 C 1068.48 421.55, 1066.73 427.27, 1064.50 438.38 C 1062.26 449.49, 1061.25 455.62, 1059.51 465.46 C 1057.77 475.30, 1056.89 480.29, 1055.79 487.59 C 1054.68 494.90, 1054.43 497.81, 1053.98 501.99 C 1053.54 506.17, 1053.62 507.18, 1053.58 508.48 C 1053.55 509.78, 1053.64 509.78, 1053.80 508.49 C 1053.96 507.20, 1053.90 506.20, 1054.37 502.03 C 1054.83 497.86, 1055.04 494.95, 1056.12 487.64 C 1057.21 480.34, 1058.06 475.35, 1059.78 465.51 C 1061.51 455.67, 1062.51 449.54, 1064.74 438.43 C 1066.97 427.32, 1068.72 421.60, 1070.93 409.96 C 1073.14 398.32, 1074.04 391.92, 1075.79 380.25 C 1077.53 368.59, 1078.18 362.33, 1079.65 351.64 C 1081.12 340.95, 1082.02 335.31, 1083.14 326.81 C 1084.27 318.31, 1084.60 314.45, 1085.28 309.13 C 1085.96 303.81, 1086.37 302.00, 1086.55 300.20 C 1086.73 298.41, 1086.52 298.37, 1086.18 300.15" style="stroke: black; fill: black;"/><path d="M 1204.66,449.44 C 1203.90 448.66, 1203.16 447.61, 1200.62 445.82 C 1198.08 444.02, 1196.19 442.04, 1191.95 440.48 C 1187.72 438.92, 1184.92 437.77, 1179.45 438.00 C 1173.98 438.24, 1170.89 439.19, 1164.61 441.65 C 1158.33 444.11, 1154.32 445.87, 1148.05 450.32 C 1141.78 454.76, 1138.39 457.67, 1133.25 463.87 C 1128.12 470.07, 1125.55 473.96, 1122.36 481.31 C 1119.18 488.67, 1117.96 493.29, 1117.34 500.66 C 1116.73 508.02, 1116.91 511.87, 1119.29 518.14 C 1121.68 524.41, 1123.94 527.83, 1129.28 531.99 C 1134.62 536.14, 1138.32 537.95, 1145.98 538.92 C 1153.64 539.89, 1158.55 539.31, 1167.59 536.84 C 1176.62 534.37, 1182.05 531.78, 1191.15 526.56 C 1200.24 521.34, 1205.46 517.99, 1213.07 510.74 C 1220.67 503.48, 1224.31 498.60, 1229.18 490.28 C 1234.04 481.95, 1235.50 476.76, 1237.37 469.11 C 1239.25 461.46, 1239.14 458.09, 1238.56 452.04 C 1237.98 445.99, 1236.23 443.07, 1234.48 438.86 C 1232.72 434.66, 1231.54 433.23, 1229.76 431.00 C 1227.99 428.77, 1227.01 428.42, 1225.59 427.72 C 1224.17 427.02, 1223.26 427.51, 1222.67 427.51 C 1222.08 427.52, 1222.11 427.63, 1222.65 427.75 C 1223.18 427.88, 1224.05 427.41, 1225.37 428.15 C 1226.68 428.89, 1227.48 429.26, 1229.21 431.44 C 1230.94 433.62, 1232.22 434.93, 1234.01 439.06 C 1235.81 443.19, 1237.56 446.08, 1238.17 452.08 C 1238.78 458.07, 1238.91 461.42, 1237.06 469.03 C 1235.21 476.64, 1233.76 481.83, 1228.93 490.13 C 1224.09 498.43, 1220.46 503.30, 1212.87 510.54 C 1205.29 517.77, 1200.08 521.11, 1191.01 526.31 C 1181.93 531.51, 1176.50 534.08, 1167.50 536.54 C 1158.51 538.99, 1153.62 539.55, 1146.02 538.58 C 1138.42 537.61, 1134.78 535.82, 1129.50 531.70 C 1124.23 527.59, 1122.00 524.21, 1119.64 518.01 C 1117.27 511.81, 1117.09 508.00, 1117.70 500.69 C 1118.31 493.37, 1119.52 488.77, 1122.69 481.45 C 1125.85 474.14, 1128.41 470.27, 1133.53 464.10 C 1138.65 457.94, 1142.02 455.04, 1148.27 450.64 C 1154.52 446.23, 1158.53 444.48, 1164.77 442.06 C 1171.01 439.65, 1174.08 438.74, 1179.47 438.55 C 1184.86 438.37, 1187.57 439.55, 1191.71 441.13 C 1195.84 442.72, 1197.61 444.77, 1200.16 446.49 C 1202.70 448.21, 1203.52 449.14, 1204.42 449.73 C 1205.32 450.33, 1205.42 450.23, 1204.66 449.44" style="stroke: black; fill: black;"/></svg>